<svg id="bi-nexplant" xmlns="http://www.w3.org/2000/svg" width="140" height="50">
    <defs>
        <style>
            .cls-2{fill:#fff}
        </style>
    </defs>
    <path id="사각형_20542" data-name="사각형 20542" style="fill:none" d="M0 0h140v50H0z"/>
    <g id="그룹_110303" data-name="그룹 110303" transform="translate(8 14.001)">
        <path id="패스_199264" data-name="패스 199264" class="cls-2" d="M464.967 497.513a7.891 7.891 0 0 1 7.907-7.907 7.648 7.648 0 0 1 7.847 7.877V499h-11.74a3.844 3.844 0 0 0 4.045 2.768 4.025 4.025 0 0 0 3.741-2.372l3.315 1.977a8.1 8.1 0 0 1-15.114-3.863zm4.2-1.855h7.361a3.532 3.532 0 0 0-3.619-2.4 3.977 3.977 0 0 0-3.746 2.4z" transform="translate(-446.161 -484.785)"/>
        <path id="패스_199265" data-name="패스 199265" class="cls-2" d="M521.972 503.194v8.223h-4.038V489.9h4.038v1.681a5.567 5.567 0 0 1 4.422-1.975c3.331 0 7.132 2.446 7.132 7.663a7.261 7.261 0 0 1-7.074 7.663 5.8 5.8 0 0 1-4.48-1.738zm7.6-5.954a3.859 3.859 0 0 0-3.949-3.95 3.969 3.969 0 0 0 0 7.929 3.884 3.884 0 0 0 3.954-3.979z" transform="translate(-462.191 -484.785)"/>
        <path id="패스_199266" data-name="패스 199266" class="cls-2" d="m496.456 497.386-5.6-7.78h5.281l3.068 4.428 3-4.428h5.095l-5.471 7.812 5.914 8h-5.281l-3.321-4.618-3.226 4.618h-5.282z" transform="translate(-453.93 -484.785)"/>
        <path id="패스_199267" data-name="패스 199267" class="cls-2" d="M438 483.936h4.278l8.394 13.3v-13.3h3.764V503.7h-4.008l-8.665-13.729V503.7H438z" transform="translate(-437.999 -483.069)"/>
        <path id="패스_199268" data-name="패스 199268" class="cls-2" d="M553.141 497.514c0-5.383 3.954-7.907 7.39-7.907a6.1 6.1 0 0 1 4.532 1.794v-1.49h4.166v15.206h-4.166v-1.7a5.93 5.93 0 0 1-4.593 2.006 7.514 7.514 0 0 1-7.329-7.909zm12.043-.03a3.924 3.924 0 0 0-3.893-4.075 4.1 4.1 0 1 0 3.893 4.075z" transform="translate(-472.847 -484.785)"/>
        <path id="패스_199269" data-name="패스 199269" class="cls-2" d="M547.916 483.937V503.7H543.7v-19.763z" transform="translate(-469.989 -483.069)"/>
        <path id="패스_199270" data-name="패스 199270" class="cls-2" d="M579.612 489.917h4.217v1.736a5.338 5.338 0 0 1 4.279-2.046c3.659 0 5.86 2.356 5.86 6.356v9.457h-4.31v-8.9c0-2.077-.961-3.287-2.852-3.287-1.613 0-2.946 1.116-2.946 3.721v8.465h-4.248z" transform="translate(-480.858 -484.785)"/>
        <path id="패스_199271" data-name="패스 199271" class="cls-2" d="M603.6 488.417h2.534v-3.489l4.086-2.236v5.725h2.8v3.668h-2.8v4.741c0 2.326.3 2.684 2.8 2.684v3.817h-.6c-4.741 0-6.292-1.611-6.292-6.471v-4.771H603.6z" transform="translate(-488.118 -482.692)"/>
    </g>
</svg>
