<svg xmlns="http://www.w3.org/2000/svg" width="16" height="16">
    <g data-name="그룹 112586">
        <path data-name="사각형 20" style="fill:none" d="M0 0h16v16H0z"/>
        <path data-name="사각형 20" transform="translate(1 1)" style="opacity:.2;fill:none" d="M0 0h14v14H0z"/>
        <path data-name="패스 202839" d="m554.061 560.069-3.987-3.987a1.538 1.538 0 0 0-2.122 0l-4.355 4.356-1.655 1.655a1.5 1.5 0 0 0 0 2.121l2.427 2.427H542a.5.5 0 0 0 0 1h6.348c.015 0 .03.008.045.008a.5.5 0 0 0 .354-.146l5.314-5.315a1.5 1.5 0 0 0 0-2.119zm-11.415 3.44a.5.5 0 0 1 0-.707l1.3-1.3 4.7 4.695-.449.449h-2.417zm10.708-2.026-4 4-4.7-4.7 4-4a.513.513 0 0 1 .707 0l3.988 3.987a.5.5 0 0 1 .005.713z" style="fill:#333" transform="translate(-540 -553.647)"/>
    </g>
</svg>
