<svg id="ic_file_detail" xmlns="http://www.w3.org/2000/svg" width="16" height="16" viewBox="0 0 16 16">
  <defs>
    <style>
      .cls-1 {
        fill: none;
      }

      .cls-2 {
        fill: #333;
      }
    </style>
  </defs>
  <g id="그룹_112616" data-name="그룹 112616" transform="translate(-570 -438.647)">
    <rect id="사각형_20" data-name="사각형 20" class="cls-1" width="16" height="16" transform="translate(570 438.647)"/>
    <rect id="사각형_20-2" data-name="사각형 20" class="cls-1" width="14" height="14" transform="translate(571 439.647)"/>
    <g id="그룹_112455" data-name="그룹 112455">
      <path id="패스_202790" data-name="패스 202790" class="cls-2" d="M578,452.147h-4.5v-11H579v3a.5.5,0,0,0,.5.5h3v2a.5.5,0,0,0,1,0v-2.5a.5.5,0,0,0-.038-.191.518.518,0,0,0-.109-.163l-3.5-3.5a.518.518,0,0,0-.163-.109.5.5,0,0,0-.191-.038H573a.5.5,0,0,0-.5.5v12a.5.5,0,0,0,.5.5h5a.5.5,0,0,0,0-1Zm2-10.293,1.793,1.793H580Z"/>
      <path id="패스_202791" data-name="패스 202791" class="cls-2" d="M584.854,452.793l-1.271-1.27a2.473,2.473,0,0,0,.417-1.376,2.509,2.509,0,1,0-1.124,2.083l1.27,1.27a.5.5,0,0,0,.708-.707ZM580,450.147a1.5,1.5,0,1,1,1.5,1.5A1.5,1.5,0,0,1,580,450.147Z"/>
    </g>
  </g>
</svg>
