<svg xmlns="http://www.w3.org/2000/svg" width="16" height="16">
    <path data-name="사각형 28" style="fill:none;opacity:.47" d="M0 0h16v16H0z"/>
    <path data-name="패스 72" d="m35.879 137.572.051.03a6.393 6.393 0 0 0 8.66-2.369.5.5 0 0 0-.867-.5 5.39 5.39 0 0 1-4.653 2.692h-.006a5.378 5.378 0 0 1 0-10.757h.029a5.522 5.522 0 0 1 4.686 2.694l.091.152h-2.995a.5.5 0 0 0 0 1h3.938a.5.5 0 0 0 .5-.5v-3.938a.5.5 0 1 0-1 0v2.286l-.178-.224a6.53 6.53 0 0 0-5.039-2.469h-.03a6.379 6.379 0 0 0-3.187 11.9z" transform="translate(-31 -124.02)" style="fill:#333"/>
</svg>
